<svg xmlns="http://www.w3.org/2000/svg" viewBox="0 0 64 64" fill="none">
  <rect width="64" height="64" rx="8" fill="#E03E2D"/>
  <path d="M32 12C20.954 12 12 20.954 12 32s8.954 20 20 20 20-8.954 20-20S43.046 12 32 12zm0 36c-8.837 0-16-7.163-16-16s7.163-16 16-16 16 7.163 16 16-7.163 16-16 16z" fill="#fff"/>
  <circle cx="32" cy="32" r="8" fill="#fff"/>
  <path d="M32 20v4M32 40v4M20 32h4M40 32h4M24.343 24.343l2.829 2.829M36.828 36.828l2.829 2.829M24.343 39.657l2.829-2.829M36.828 27.172l2.829-2.829" stroke="#fff" stroke-width="2" stroke-linecap="round"/>
</svg>
